<?xml version="1.0" encoding="UTF-8" standalone="no"?>
<svg
   xmlns:dc="http://purl.org/dc/elements/1.1/"
   xmlns:cc="http://creativecommons.org/ns#"
   xmlns:rdf="http://www.w3.org/1999/02/22-rdf-syntax-ns#"
   xmlns:svg="http://www.w3.org/2000/svg"
   xmlns="http://www.w3.org/2000/svg"
   xmlns:xlink="http://www.w3.org/1999/xlink"
   xmlns:sodipodi="http://sodipodi.sourceforge.net/DTD/sodipodi-0.dtd"
   xmlns:inkscape="http://www.inkscape.org/namespaces/inkscape"
   width="65.500198"
   height="65.5"
   style="fill-opacity:1;fill-rule:evenodd;stroke:none"
   id="svg2"
   version="1.1"
   inkscape:version="0.48.4 r9939"
   sodipodi:docname="XML_(de).svg">
  <metadata
     id="metadata76">
    <rdf:RDF>
      <cc:Work
         rdf:about="">
        <dc:format>image/svg+xml</dc:format>
        <dc:type
           rdf:resource="http://purl.org/dc/dcmitype/StillImage" />
      </cc:Work>
    </rdf:RDF>
  </metadata>
  <sodipodi:namedview
     pagecolor="#ffffff"
     bordercolor="#666666"
     borderopacity="1"
     objecttolerance="10"
     gridtolerance="10"
     guidetolerance="10"
     inkscape:pageopacity="0"
     inkscape:pageshadow="2"
     inkscape:window-width="932"
     inkscape:window-height="662"
     id="namedview74"
     showgrid="false"
     fit-margin-top="0"
     fit-margin-left="0"
     fit-margin-right="0"
     fit-margin-bottom="0"
     inkscape:zoom="4.7693736"
     inkscape:cx="8.1338847"
     inkscape:cy="21.752417"
     inkscape:window-x="192"
     inkscape:window-y="72"
     inkscape:window-maximized="0"
     inkscape:current-layer="gTagXML" />
  <defs
     id="defs4">
    <path
       id="pathTagXML"
       d="m 4.2424884,2.9393196 2.9238281,0 1.5234375,2.6425781 1.476563,-2.6425781 2.894531,0 -2.671875,4.1601563 2.923828,4.4296871 -2.982422,0 -1.6933594,-2.7597653 -1.6992187,2.7597653 -2.9648438,0 L 6.9378009,7.0526009 4.2424884,2.9393196 z m 9.8906246,0 3.492188,0 1.347656,5.2265625 1.341797,-5.2265625 3.480469,0 0,8.5898434 -2.167969,0 0,-6.5507809 -1.681641,6.5507809 -1.96289,0 -1.675781,-6.5507809 0,6.5507809 -2.173829,0 0,-8.5898434 z m 11.34961,0 2.654297,0 0,6.4746094 4.142578,0 0,2.115234 -6.796875,0 0,-8.5898434 z"
       inkscape:connector-curvature="0" />
  </defs>
  <g
     id="gTagXML"
     transform="matrix(2,0,0,2,-3.249902,37.5)">
    <g
       id="g3038"
       transform="translate(1.6249516,-9.375)">
      <path
         inkscape:connector-curvature="0"
         id="path60"
         d="m 32.750098,14 -0.909725,-1 0,-12 0.909725,-1 0,14 z"
         style="fill:#803300" />
      <rect
         id="rect62"
         y="1"
         x="0.90972495"
         height="12"
         width="30.930647"
         style="fill:#ff6600" />
      <path
         inkscape:connector-curvature="0"
         id="path64"
         d="M 0,0 32.750098,0 31.840373,1 0.90972493,1 0,0 z"
         style="fill:#ffccaa" />
      <path
         inkscape:connector-curvature="0"
         id="path66"
         d="M 0,14 32.750098,14 31.840373,13 0.90972493,13 0,14 z"
         style="fill:#552200" />
      <path
         inkscape:connector-curvature="0"
         id="path68"
         d="M 0.90972493,13 0,14 0,0 l 0.90972493,1 0,12 z"
         style="fill:#ff9955" />
    </g>
    <g
       id="g3034"
       transform="translate(1.8553225,-22.238057)">
      <use
         height="312.5"
         width="275"
         y="0"
         x="0"
         id="use70"
         transform="translate(-1.4815995,13.128816)"
         style="fill:#803300;fill-opacity:1;fill-rule:evenodd;stroke:none"
         xlink:href="#pathTagXML" />
      <use
         transform="translate(-2.4815995,12.128816)"
         height="312.5"
         width="275"
         y="0"
         x="0"
         id="use72"
         style="fill:#ffffff;fill-opacity:1;fill-rule:evenodd;stroke:none"
         xlink:href="#pathTagXML" />
    </g>
  </g>
</svg>
